<svg width="61" height="78" viewBox="0 0 61 78" fill="none" xmlns="http://www.w3.org/2000/svg">
<path d="M19.8 24.4201V17.8201H17.82V21.1201H9.9V6.60005H13.2V4.62005H9.9V1.32006H4.62V3.30006H7.92V7.92006H4.62V14.5201H1.32V16.5001H4.62V21.1201H0.660001V19.8001H3.3V17.8201H8.79169e-07V13.2001H3.3V6.60005H6.6V4.62005H3.3V5.42402e-05H11.22V3.30006H14.52V7.92006H11.22V19.8001H16.5V16.5001H21.12V23.1001H23.1V16.5001H29.7V13.2001H39.6V6.60005H42.9V3.30006H49.5V1.32006H46.86V5.42402e-05H50.82V4.62005H44.22V7.92006H40.92V14.5201H31.02V17.8201H24.42V24.4201H19.8ZM16.5 7.26005V5.42402e-05H30.36V1.32006H17.82V7.26005H16.5ZM23.1 14.5201V11.2201H19.8V6.60005H27.06V7.92006H21.12V9.90006H24.42V13.2001H26.4V9.90006H29.7V3.30006H33V5.42402e-05H37.62V7.92006H34.32V9.90006H36.96V11.2201H33V6.60005H36.3V1.32006H34.32V4.62005H31.02V11.2201H27.72V14.5201H23.1ZM39.6 3.96006V5.42402e-05H43.56V1.32006H40.92V3.96006H39.6ZM52.8 11.2201V3.30006H56.1V1.32006H53.46V5.42402e-05H57.42V4.62005H54.12V9.90006H59.4V3.96006H60.72V11.2201H52.8ZM20.46 4.62005V3.30006H27.06V4.62005H20.46ZM8.79169e-07 10.5601V3.96006H1.32V10.5601H8.79169e-07ZM46.2 11.2201V7.26005H47.52V9.90006H49.5V7.26005H50.82V11.2201H46.2ZM13.2 17.1601V9.90006H17.82V13.8601H16.5V11.2201H14.52V17.1601H13.2ZM42.9 14.5201V10.5601H44.22V13.2001H46.86V14.5201H42.9ZM6.6 17.1601V10.5601H7.92V17.1601H6.6ZM52.8 21.1201V17.8201H49.5V13.2001H60.72V20.4601H59.4V14.5201H50.82V16.5001H54.12V19.8001H56.1V17.1601H57.42V21.1201H52.8ZM36.96 21.1201V19.8001H46.2V17.8201H34.32V20.4601H33V16.5001H47.52V21.1201H36.96ZM27.06 21.1201V19.8001H30.36V21.1201H27.06ZM6.6 34.3201V31.0201H3.3V26.4001H13.2V24.4201H1.32V27.0601H8.79169e-07V23.1001H14.52V27.7201H4.62V29.7001H7.92V33.0001H16.5V31.0201H10.56V29.7001H17.82V34.3201H6.6ZM16.5 27.0601V23.7601H17.82V27.0601H16.5ZM16.5 44.2201V39.6001H20.46V40.9201H17.82V42.9001H23.1V37.6201H19.8V26.4001H24.42V33.0001H26.4V30.3601H27.72V34.3201H23.1V27.7201H21.12V36.3001H24.42V44.2201H16.5ZM29.7 34.3201V29.7001H37.62V33.0001H40.26V34.3201H36.3V31.0201H31.02V33.0001H33.66V34.3201H29.7ZM26.4 44.2201V36.3001H30.36V37.6201H27.72V42.9001H29.7V39.6001H33V36.3001H40.92V39.6001H42.9V36.3001H46.2V34.3201H42.9V29.7001H50.82V40.9201H47.52V42.9001H56.1V34.3201H52.8V29.7001H56.76V31.0201H54.12V33.0001H57.42V44.2201H46.2V39.6001H49.5V31.0201H44.22V33.0001H47.52V37.6201H44.22V40.9201H39.6V37.6201H34.32V40.9201H31.02V44.2201H26.4ZM8.79169e-07 36.9601V33.6601H1.32V36.9601H8.79169e-07ZM3.3 50.8201V47.5201H8.79169e-07V39.6001H3.3V36.3001H17.16V37.6201H4.62V40.9201H1.32V46.2001H4.62V49.5001H9.9V46.2001H13.2V44.2201H9.9V40.9201H7.92V46.8601H6.6V39.6001H11.22V42.9001H14.52V47.5201H11.22V50.8201H3.3ZM52.8 40.2601V36.9601H54.12V40.2601H52.8ZM39.6 47.5201V44.2201H36.3V40.2601H37.62V42.9001H40.92V46.2001H46.86V47.5201H39.6ZM26.4 50.8201V47.5201H20.46V46.2001H27.72V49.5001H33V47.5201H30.36V46.2001H34.32V50.8201H26.4ZM36.3 50.8201V46.8601H37.62V49.5001H49.5V46.2001H53.46V47.5201H50.82V50.8201H36.3ZM16.5 50.1601V46.8601H17.82V50.1601H16.5ZM56.1 50.1601V46.8601H57.42V50.1601H56.1ZM3.3 67.3201V62.7001H6.6V60.7201H3.96V59.4001H7.92V64.0201H4.62V66.0001H9.9V62.7001H19.8V49.5001H24.42V59.4001H29.7V57.4201H27.06V56.1001H31.02V60.7201H23.1V50.8201H21.12V64.0201H11.22V67.3201H3.3ZM13.86 60.7201V59.4001H16.5V57.4201H6.6V54.1201H8.79169e-07V50.1601H1.32V52.8001H7.92V56.1001H17.82V60.7201H13.86ZM10.56 54.1201V52.8001H13.86V54.1201H10.56ZM40.26 67.3201V66.0001H49.5V62.7001H52.8V56.1001H57.42V59.4001H60.72V64.0201H57.42V67.3201H53.46V66.0001H56.1V62.7001H59.4V60.7201H56.1V57.4201H54.12V64.0201H50.82V67.3201H40.26ZM39.6 77.2201V70.6201H33V59.4001H36.3V56.1001H44.22V60.7201H40.92V64.0201H37.62V66.6601H36.3V62.7001H39.6V59.4001H42.9V57.4201H37.62V60.7201H34.32V69.3001H40.92V75.9001H49.5V70.6201H44.22V72.6001H46.86V73.9201H42.9V69.3001H50.82V77.2201H39.6ZM46.2 60.7201V56.7601H47.52V59.4001H49.5V56.7601H50.82V60.7201H46.2ZM8.79169e-07 66.6601V56.7601H1.32V66.6601H8.79169e-07ZM19.8 77.2201V73.9201H17.82V76.5601H16.5V72.6001H21.12V75.9001H26.4V72.6001H29.7V64.0201H24.42V66.0001H27.72V70.6201H16.5V66.6601H17.82V69.3001H26.4V67.3201H23.1V62.7001H31.02V73.9201H27.72V77.2201H19.8ZM43.56 64.0201V62.7001H46.86V64.0201H43.56ZM52.8 77.2201V69.3001H59.4V66.6601H60.72V70.6201H54.12V75.9001H56.1V73.2601H57.42V77.2201H52.8ZM3.3 77.2201V73.9201H1.32V76.5601H8.79169e-07V72.6001H4.62V75.9001H6.6V72.6001H11.22V75.9001H13.2V70.6201H0.660001V69.3001H14.52V77.2201H9.9V73.9201H7.92V77.2201H3.3ZM30.36 77.2201V75.9001H33V72.6001H37.62V76.5601H36.3V73.9201H34.32V77.2201H30.36ZM59.4 76.5601V73.2601H60.72V76.5601H59.4Z" fill="#D4B783"/>
</svg>
