<svg width="68" height="78" viewBox="0 0 68 78" fill="none" xmlns="http://www.w3.org/2000/svg">
<path d="M8.79169e-07 31.0201V26.4001H3.3V24.4201H8.79169e-07V16.5001H3.3V14.5201H8.79169e-07V3.96006H1.32V13.2001H4.62V17.8201H1.32V23.1001H4.62V27.7201H1.32V29.7001H6.6V16.5001H9.9V7.92006H3.3V3.30006H6.6V5.42402e-05H17.82V3.30006H19.8V5.42402e-05H24.42V6.60005H27.72V9.90006H29.7V3.30006H33V5.42402e-05H40.92V3.30006H50.82V7.92006H36.96V6.60005H49.5V4.62005H39.6V1.32006H34.32V4.62005H31.02V11.2201H26.4V7.92006H23.1V1.32006H21.12V4.62005H16.5V1.32006H7.92V4.62005H4.62V6.60005H11.22V17.8201H7.92V31.0201H8.79169e-07ZM26.4 3.96006V5.42402e-05H30.36V1.32006H27.72V3.96006H26.4ZM10.56 4.62005V3.30006H13.86V4.62005H10.56ZM36.3 37.6201V33.0001H39.6V29.7001H46.2V27.7201H39.6V21.1201H36.3V17.8201H26.4V14.5201H13.2V9.90006H19.8V7.92006H17.16V6.60005H21.12V11.2201H14.52V13.2001H27.72V16.5001H37.62V19.8001H40.92V26.4001H47.52V31.0201H40.92V34.3201H37.62V36.3001H46.2V34.3201H43.56V33.0001H47.52V37.6201H36.3ZM53.46 7.92006V6.60005H56.76V7.92006H53.46ZM30.36 14.5201V13.2001H36.3V11.2201H33V7.26005H34.32V9.90006H37.62V14.5201H30.36ZM6.6 13.8601V11.2201H3.96V9.90006H7.92V13.8601H6.6ZM56.76 14.5201V13.2001H59.4V11.2201H50.16V9.90006H60.72V14.5201H56.76ZM59.4 27.7201V17.8201H57.42V21.1201H49.5V17.8201H47.52V21.1201H42.9V14.5201H39.6V9.90006H47.52V13.2001H54.12V17.1601H52.8V14.5201H46.2V11.2201H40.92V13.2001H44.22V19.8001H46.2V16.5001H50.82V19.8001H56.1V16.5001H60.72V26.4001H66V23.7601H67.32V27.7201H59.4ZM62.7 13.8601V10.5601H64.02V13.8601H62.7ZM42.9 54.1201V46.2001H46.86V47.5201H44.22V52.8001H46.2V49.5001H49.5V44.2201H42.9V40.9201H33V34.3201H26.4V24.4201H23.1V21.1201H21.12V24.4201H17.82V26.4001H24.42V34.3201H13.2V27.7201H9.9V23.1001H13.2V19.8001H16.5V16.5001H20.46V17.8201H17.82V21.1201H14.52V24.4201H11.22V26.4001H14.52V33.0001H23.1V27.7201H16.5V23.1001H19.8V19.8001H24.42V23.1001H27.72V33.0001H34.32V39.6001H44.22V42.9001H50.82V50.8201H47.52V54.1201H42.9ZM63.36 17.8201V16.5001H66.66V17.8201H63.36ZM27.06 21.1201V19.8001H33.66V21.1201H27.06ZM62.7 23.7601V19.8001H66.66V21.1201H64.02V23.7601H62.7ZM43.56 24.4201V23.1001H50.16V24.4201H43.56ZM49.5 34.3201V26.4001H52.8V23.1001H57.42V27.0601H56.1V24.4201H54.12V27.7201H50.82V33.0001H52.8V29.7001H57.42V33.0001H60.06V34.3201H56.1V31.0201H54.12V34.3201H49.5ZM60.06 31.0201V29.7001H63.36V31.0201H60.06ZM17.16 31.0201V29.7001H20.46V31.0201H17.16ZM19.8 47.5201V44.2201H17.16V42.9001H21.12V46.2001H23.1V37.6201H9.9V30.3601H11.22V36.3001H24.42V47.5201H19.8ZM8.79169e-07 40.9201V36.9601H1.32V39.6001H3.3V34.3201H0.660001V33.0001H4.62V40.9201H8.79169e-07ZM6.6 40.2601V33.6601H7.92V40.2601H6.6ZM59.4 44.2201V36.9601H60.72V42.9001H62.7V33.6601H64.02V44.2201H59.4ZM66 36.9601V33.6601H67.32V36.9601H66ZM26.4 44.2201V36.3001H31.02V40.2601H29.7V37.6201H27.72V42.9001H30.36V44.2201H26.4ZM52.8 47.5201V42.9001H56.1V37.6201H50.82V39.6001H53.46V40.9201H49.5V36.3001H57.42V44.2201H54.12V46.2001H56.76V47.5201H52.8ZM17.16 40.9201V39.6001H20.46V40.9201H17.16ZM8.79169e-07 77.2201V69.3001H6.6V66.0001H11.22V69.9601H9.9V67.3201H7.92V70.6201H1.32V75.9001H9.9V72.6001H14.52V75.9001H26.4V73.9201H16.5V70.6201H13.2V64.0201H4.62V67.3201H8.79169e-07V56.1001H4.62V59.4001H6.6V52.8001H9.9V50.8201H6.6V42.9001H9.9V39.6001H14.52V46.2001H17.82V49.5001H21.12V52.8001H23.1V49.5001H27.72V52.8001H36.3V50.8201H30.36V49.5001H37.62V54.1201H26.4V50.8201H24.42V54.1201H19.8V50.8201H16.5V47.5201H13.2V40.9201H11.22V44.2201H7.92V49.5001H11.22V54.1201H7.92V60.7201H3.3V57.4201H1.32V66.0001H3.3V62.7001H14.52V69.3001H17.82V72.6001H27.72V77.2201H13.2V73.9201H11.22V77.2201H8.79169e-07ZM39.6 50.1601V47.5201H36.3V44.2201H33.66V42.9001H37.62V46.2001H40.92V50.1601H39.6ZM0.660001 47.5201V46.2001H3.3V44.2201H0.660001V42.9001H4.62V47.5201H0.660001ZM27.06 47.5201V46.2001H33.66V47.5201H27.06ZM8.79169e-07 53.4601V49.5001H4.62V53.4601H3.3V50.8201H1.32V53.4601H8.79169e-07ZM53.46 50.8201V49.5001H56.76V50.8201H53.46ZM19.8 70.6201V66.0001H26.4V64.0201H23.1V59.4001H26.4V57.4201H21.12V64.0201H16.5V60.7201H9.9V56.1001H13.2V50.1601H14.52V57.4201H11.22V59.4001H17.82V62.7001H19.8V56.1001H27.72V60.7201H24.42V62.7001H27.72V67.3201H21.12V69.3001H23.76V70.6201H19.8ZM16.5 56.7601V53.4601H17.82V56.7601H16.5ZM3.96 73.9201V72.6001H7.26V73.9201H3.96Z" fill="#D4B783"/>
</svg>
