<svg width="71" height="78" viewBox="0 0 71 78" fill="none" xmlns="http://www.w3.org/2000/svg">
<path d="M9.9 17.8201V13.2001H16.5V5.42402e-05H21.12V3.30006H26.4V1.32006H23.76V5.42402e-05H27.72V4.62005H19.8V1.32006H17.82V14.5201H11.22V16.5001H13.86V17.8201H9.9ZM1.01142e-06 24.4201V16.5001H6.6V6.60005H11.22V9.90006H13.2V1.32006H11.22V4.62005H1.32V13.2001H3.3V7.26005H4.62V14.5201H1.01142e-06V3.30006H9.9V5.42402e-05H14.52V11.2201H9.9V7.92006H7.92V17.8201H1.32V23.1001H3.3V19.8001H7.92V23.1001H9.9V19.8001H14.52V23.1001H16.5V16.5001H21.12V19.8001H24.42V23.1001H29.7V16.5001H33V13.2001H39.6V7.92006H37.62V11.2201H26.4V7.92006H24.42V11.2201H19.8V7.26005H21.12V9.90006H23.1V6.60005H27.72V9.90006H36.3V6.60005H40.92V14.5201H34.32V17.8201H31.02V24.4201H23.1V21.1201H19.8V17.8201H17.82V24.4201H13.2V21.1201H11.22V24.4201H6.6V21.1201H4.62V24.4201H1.01142e-06ZM3.96 1.32006V5.42402e-05H7.26V1.32006H3.96ZM56.1 24.4201V21.1201H52.8V14.5201H49.5V11.2201H42.9V1.32006H40.92V4.62005H34.32V7.92006H29.7V5.42402e-05H36.96V1.32006H31.02V6.60005H33V3.30006H39.6V5.42402e-05H44.22V9.90006H50.82V13.2001H54.12V19.8001H57.42V23.1001H59.4V17.8201H56.1V13.2001H59.4V11.2201H56.1V6.60005H62.7V4.62005H59.4V1.32006H47.52V3.30006H50.82V6.60005H54.12V10.5601H52.8V7.92006H49.5V4.62005H46.2V5.42402e-05H60.72V3.30006H64.02V7.92006H57.42V9.90006H60.72V14.5201H57.42V16.5001H60.72V24.4201H56.1ZM63.36 1.32006V5.42402e-05H66.66V1.32006H63.36ZM62.7 14.5201V9.90006H66V3.30006H69.96V4.62005H67.32V11.2201H64.02V13.2001H69.3V7.26005H70.62V14.5201H62.7ZM53.46 4.62005V3.30006H56.76V4.62005H53.46ZM23.76 17.8201V16.5001H26.4V13.2001H30.36V14.5201H27.72V17.8201H23.76ZM20.46 14.5201V13.2001H23.76V14.5201H20.46ZM42.9 24.4201V20.4601H44.22V23.1001H46.2V17.8201H42.9V13.8601H44.22V16.5001H47.52V24.4201H42.9ZM36.96 17.8201V16.5001H40.26V17.8201H36.96ZM62.7 24.4201V19.8001H69.3V17.8201H66.66V16.5001H70.62V21.1201H64.02V23.1001H66.66V24.4201H62.7ZM49.5 20.4601V17.1601H50.82V20.4601H49.5ZM33 47.5201V44.2201H23.1V31.0201H19.8V26.4001H27.72V29.7001H34.32V33.0001H42.9V29.7001H46.2V27.7201H39.6V21.1201H37.62V27.7201H30.36V26.4001H36.3V19.8001H40.92V26.4001H47.52V31.0201H44.22V34.3201H33V31.0201H26.4V27.7201H21.12V29.7001H24.42V42.9001H34.32V46.2001H36.96V47.5201H33ZM33 23.7601V20.4601H34.32V23.7601H33ZM50.16 24.4201V23.1001H53.46V24.4201H50.16ZM36.96 31.0201V29.7001H40.26V31.0201H36.96ZM27.06 40.9201V39.6001H29.7V37.6201H26.4V33.0001H30.36V34.3201H27.72V36.3001H31.02V40.9201H27.06ZM19.8 43.5601V33.6601H21.12V43.5601H19.8ZM33 77.2201V73.9201H29.7V69.3001H36.3V66.0001H40.92V69.9601H39.6V67.3201H37.62V70.6201H31.02V72.6001H34.32V75.9001H39.6V72.6001H44.22V75.9001H46.2V70.6201H42.9V66.0001H46.2V64.0201H34.32V67.3201H29.7V57.4201H23.1V52.8001H29.7V49.5001H39.6V44.2201H36.3V40.9201H33V36.3001H40.92V39.6001H42.9V36.3001H46.2V33.6601H47.52V37.6201H44.22V40.9201H39.6V37.6201H34.32V39.6001H37.62V42.9001H40.92V50.8201H31.02V54.1201H24.42V56.1001H31.02V66.0001H33V62.7001H47.52V67.3201H44.22V69.3001H47.52V77.2201H42.9V73.9201H40.92V77.2201H33ZM46.2 43.5601V40.2601H47.52V43.5601H46.2ZM43.56 50.8201V49.5001H46.2V47.5201H42.9V43.5601H44.22V46.2001H47.52V50.8201H43.56ZM26.4 77.2201V60.7201H19.8V46.2001H24.42V49.5001H26.4V46.2001H30.36V47.5201H27.72V50.8201H23.1V47.5201H21.12V59.4001H27.72V75.9001H30.36V77.2201H26.4ZM33 60.7201V52.8001H36.96V54.1201H34.32V59.4001H36.3V56.1001H39.6V52.8001H44.22V56.7601H42.9V54.1201H40.92V57.4201H37.62V60.7201H33ZM46.2 56.7601V53.4601H47.52V56.7601H46.2ZM40.26 60.7201V59.4001H46.86V60.7201H40.26ZM19.8 70.6201V66.6601H21.12V69.3001H23.1V64.0201H20.46V62.7001H24.42V70.6201H19.8ZM19.8 77.2201V72.6001H23.76V73.9201H21.12V75.9001H23.76V77.2201H19.8Z" fill="#D4B783"/>
</svg>
